<?xml version="1.0" encoding="utf-8"?>
<!-- Generator: Adobe Illustrator 17.0.0, SVG Export Plug-In . SVG Version: 6.00 Build 0)  -->
<!DOCTYPE svg PUBLIC "-//W3C//DTD SVG 1.1//EN" "http://www.w3.org/Graphics/SVG/1.1/DTD/svg11.dtd">
<svg version="1.1" id="Layer_1" xmlns="http://www.w3.org/2000/svg" xmlns:xlink="http://www.w3.org/1999/xlink" x="0px" y="0px"
	 width="120px" height="120px" viewBox="0 0 120 120" enable-background="new 0 0 120 120" xml:space="preserve">
<g opacity="0.5">
	<path fill-rule="evenodd" clip-rule="evenodd" fill="#FFFFFF" stroke="#000000" stroke-miterlimit="10" d="M59.326,3
		c31.66,0,57.326,25.666,57.326,57.326c0,31.66-25.666,57.326-57.326,57.326C27.666,117.653,2,91.987,2,60.326
		C2,28.666,27.666,3,59.326,3L59.326,3z"/>
	<path fill-rule="evenodd" clip-rule="evenodd" fill="#FFFFFF" stroke="#000000" stroke-miterlimit="10" d="M2.859,63.648
		c0,27.373,26.579,53.146,54.474,53.146h4.429c27.482,0,54.031-25.994,54.031-53.146v-4.872c0-28.515-25.584-54.917-53.588-54.917
		h-5.757c-28.029,0-53.588,26.369-53.588,54.917V63.648L2.859,63.648z"/>
	<path fill-rule="evenodd" clip-rule="evenodd" fill="#FFFFFF" stroke="#000000" stroke-miterlimit="10" d="M47.43,40.823v5.315
		c0,7.183,4.872,13.817,4.872,23.915v1.772c0,1.977-2.295,4.872-3.986,4.872h-1.771c-5.135,0-6.481-10.629-12.401-10.629h-2.657
		c-1.091,0-1.927,1.34-3.543,1.772c0.009,0.107,4.024,2.267,3.891,10.723c0.533,5.204,1.6,7.602,3.811,11.247
		c3.049,5.027,10.792,11.09,17.985,11.688v-8.415c0-17.49,15.058-29.696,15.058-40.302c0-4.839-4.872-13.671-4.872-20.815v-5.757
		c0-5.953,2.121-9.097,2.214-13.287c-4.747,0.106-10.409,7.158-12.768,10.262C50.258,27.137,47.43,33.968,47.43,40.823L47.43,40.823
		z"/>
	<path fill-rule="evenodd" clip-rule="evenodd" fill="#FFFFFF" stroke="#000000" stroke-miterlimit="10" d="M71.544,30.663
		l0.244,11.046c0,23.079-16.829,31.603-16.829,51.374v8.858c2.665,0.402,5.733,0.459,8.857,0c12.478,0,27.901-14.133,27.901-26.573
		V69.61c0-4.26-1.103-16.252-3.1-17.715c0,11.009-8.089,30.675-15.944,32.773c4.623-6.904,9.743-16.437,9.743-27.901
		c0-8.242-1.198-13.712-3.48-19.55c-1.176-3.009-6.185-13.639-8.274-14.97L71.544,30.663L71.544,30.663z"/>
	<polygon fill-rule="evenodd" clip-rule="evenodd" fill="#FFFFFF" stroke="#000000" stroke-miterlimit="10" points="31.508,33.31 
		33.357,39.037 39.375,39.026 34.5,42.554 36.37,48.274 31.508,44.727 26.646,48.274 28.517,42.554 23.642,39.026 29.66,39.037 
		31.508,33.31 	"/>
	<path opacity="0" fill="#FFFFFF" stroke="#000000" stroke-miterlimit="10" d="M16.853,85.741l-1.369-2.191l-2.52,1.574
		l-0.733-1.174l5.618-3.51l0.733,1.174l-2.128,1.33l1.369,2.191l2.128-1.33l0.733,1.174l-5.618,3.51l-0.733-1.174L16.853,85.741
		L16.853,85.741z M18.216,87.639c0.721-0.605,1.437-0.933,2.149-0.984c0.558-0.043,1.097,0.087,1.616,0.39
		c0.374,0.216,0.693,0.482,0.958,0.798c0.269,0.321,0.474,0.674,0.615,1.062c0.203,0.568,0.238,1.121,0.104,1.66
		c-0.174,0.692-0.624,1.342-1.35,1.951c-0.721,0.605-1.44,0.935-2.156,0.99c-0.558,0.043-1.099-0.086-1.623-0.385
		c-0.37-0.211-0.685-0.473-0.946-0.783c-0.273-0.325-0.479-0.682-0.62-1.07c-0.204-0.568-0.238-1.121-0.104-1.659
		C17.038,88.904,17.49,88.247,18.216,87.639L18.216,87.639z M19.105,88.699c-0.641,0.538-0.984,1.095-1.03,1.672
		c-0.034,0.438,0.103,0.841,0.412,1.208c0.3,0.358,0.67,0.558,1.107,0.601c0.576,0.055,1.184-0.187,1.825-0.724
		c0.636-0.534,0.975-1.087,1.016-1.66c0.034-0.438-0.099-0.836-0.4-1.194c-0.3-0.358-0.672-0.561-1.113-0.608
		C20.342,87.934,19.736,88.169,19.105,88.699L19.105,88.699z M24.246,86.728l-0.268,1.688l-0.705-0.756l0.149-0.946l-0.955,0.083
		l-0.704-0.756l1.702-0.149L24.246,86.728L24.246,86.728z M17.513,92.981l-0.783,0.73l-0.793-0.85l0.783-0.73L17.513,92.981
		L17.513,92.981z M26.171,91.817l-4.684,4.684l-0.979-0.979l4.684-4.684L26.171,91.817L26.171,91.817z M25.499,97.593l1.047,0.818
		c-0.167,0.213-0.242,0.439-0.226,0.678c0.026,0.356,0.25,0.699,0.672,1.028c0.315,0.246,0.592,0.396,0.831,0.45
		c0.325,0.074,0.585-0.015,0.782-0.267c0.144-0.184,0.168-0.395,0.073-0.633c-0.064-0.167-0.233-0.42-0.507-0.759l-0.465-0.574
		c-0.459-0.562-0.735-0.992-0.829-1.292c-0.158-0.506-0.037-1.017,0.364-1.53c0.314-0.402,0.705-0.647,1.172-0.736
		c0.651-0.124,1.35,0.106,2.096,0.689c0.713,0.557,1.094,1.178,1.143,1.864c0.039,0.53-0.103,1.001-0.425,1.413l-1.047-0.818
		c0.139-0.228,0.203-0.435,0.193-0.622c-0.016-0.34-0.229-0.671-0.641-0.993c-0.247-0.193-0.489-0.308-0.726-0.345
		c-0.286-0.044-0.512,0.041-0.679,0.254c-0.14,0.179-0.183,0.365-0.129,0.555c0.031,0.11,0.114,0.253,0.25,0.429l1.041,1.305
		c0.348,0.443,0.558,0.83,0.629,1.158c0.094,0.449-0.027,0.889-0.364,1.32c-0.413,0.529-0.907,0.802-1.484,0.82
		c-0.641,0.022-1.282-0.217-1.922-0.717c-0.839-0.655-1.282-1.341-1.331-2.059C24.986,98.524,25.147,98.044,25.499,97.593
		L25.499,97.593z M34.42,98.653l-3.8,5.427l-1.134-0.794l3.8-5.427L34.42,98.653L34.42,98.653z M38.674,101.15l1.119,0.646
		l-3.312,5.737l-1.198-0.692l0.029-5.438l-2.378,4.082l-1.119-0.646l3.312-5.737l1.263,0.729l-0.037,5.304L38.674,101.15
		L38.674,101.15z M42.696,106.91l-2.395-0.968l-1.113,2.755l-1.283-0.518l2.482-6.142l1.283,0.518l-0.94,2.327l2.395,0.968
		l0.94-2.327l1.283,0.518l-2.481,6.142l-1.283-0.518L42.696,106.91L42.696,106.91z M51.933,105.608l1.418,0.25l-3.368,6.133
		l-1.29-0.227l-1.048-6.912l1.454,0.256l0.527,5.19L51.933,105.608L51.933,105.608z M55.091,105.888l-0.462,6.608l-1.38-0.097
		l0.462-6.608L55.091,105.888L55.091,105.888z M60.945,106.011v1.163h-3.506v1.402h3.229v1.163h-3.229v1.716h3.672v1.181h-5.037
		v-6.625H60.945L60.945,106.011z M58.765,104.051l1.075,1.329l-1.033,0.018l-0.603-0.744l-0.578,0.765l-1.033,0.018l1.028-1.365
		L58.765,104.051L58.765,104.051z M66.328,105.715l1.287-0.113l0.577,6.599l-1.378,0.12l-3.096-4.471l0.393,4.708l-1.287,0.112
		l-0.577-6.599l1.452-0.127l3.012,4.366L66.328,105.715L66.328,105.715z M74.162,103.773l1.377-0.421l-0.216,6.993l-1.253,0.383
		l-4.072-5.682l1.412-0.432l2.826,4.384L74.162,103.773L74.162,103.773z M77.27,102.524l2.482,6.142l-1.283,0.518l-2.481-6.142
		L77.27,102.524L77.27,102.524z M82.26,100.018l0.546,1.026l-3.096,1.646l0.659,1.238l2.851-1.516l0.546,1.027l-2.851,1.516
		l0.806,1.515l3.242-1.724l0.554,1.043l-4.448,2.365l-3.11-5.849L82.26,100.018L82.26,100.018z M79.128,99.436l1.595,0.613
		l-0.886,0.532l-0.895-0.343l-0.118,0.951l-0.886,0.532l0.208-1.696L79.128,99.436L79.128,99.436z M83.845,107.322l0.551,0.918
		l-0.997,0.599l-0.551-0.918L83.845,107.322L83.845,107.322z M86.069,98.764l3.211,4.419l-1.12,0.814l-3.211-4.419l-1.627,1.182
		l-0.683-0.941l4.359-3.167l0.683,0.94L86.069,98.764L86.069,98.764z M92.353,92.008l0.945-0.881l4.518,4.845l-1.012,0.944
		l-5.192-1.617l3.208,3.468l-0.945,0.881l-4.518-4.845l1.066-0.994l5.062,1.586L92.353,92.008L92.353,92.008z M98.529,92.835
		l0.75,1.231l-0.937,1.117l-3.55-6.076l1.037-1.236l6.557,2.491l-0.961,1.145l-1.319-0.552L98.529,92.835L98.529,92.835z
		 M97.89,91.817l1.091-1.301l-2.541-1.048L97.89,91.817L97.89,91.817z M100.701,80.618l5.618,3.511l-0.684,1.095l-4.695-2.934
		l4.03,3.998l-0.724,1.158l-5.33-1.916l4.685,2.949l-0.685,1.095l-5.618-3.51l1.066-1.706l5.059,1.749l-3.788-3.783L100.701,80.618
		L100.701,80.618z"/>
</g>
</svg>
