<?xml version="1.0" encoding="utf-8"?>
<!-- Generator: Adobe Illustrator 17.0.0, SVG Export Plug-In . SVG Version: 6.00 Build 0)  -->
<!DOCTYPE svg PUBLIC "-//W3C//DTD SVG 1.1//EN" "http://www.w3.org/Graphics/SVG/1.1/DTD/svg11.dtd">
<svg version="1.1" id="Layer_1" xmlns="http://www.w3.org/2000/svg" xmlns:xlink="http://www.w3.org/1999/xlink" x="0px" y="0px"
	 width="120px" height="120px" viewBox="0 0 120 120" enable-background="new 0 0 120 120" xml:space="preserve">
<g opacity="0.5">
	<path fill-rule="evenodd" clip-rule="evenodd" fill="none" stroke="#000000" stroke-width="0.6999" stroke-miterlimit="2.6131" d="
		M28.463,41.825l73.793,40.552c-5.604,16.797-22.157,29.026-41.616,29.026c-24.042,0-43.65-18.666-43.65-41.552
		C16.991,59.069,21.345,49.223,28.463,41.825L28.463,41.825z"/>
	<path fill-rule="evenodd" clip-rule="evenodd" fill="none" stroke="#000000" stroke-miterlimit="10" d="M36.121,57.074
		c0.603-0.995,1.264-1.938,1.976-2.83L86.5,80.847c-0.455,1.033-0.983,2.049-1.586,3.044c-0.631,1.04-1.326,2.024-2.076,2.952
		L34.473,60.261C34.943,59.179,35.49,58.115,36.121,57.074L36.121,57.074z M82,87.831c-1.687,1.893-3.617,3.519-5.72,4.865
		L32.427,68.594c0.173-2.406,0.688-4.811,1.566-7.148L82,87.831L82,87.831z M75.026,93.455c-2.692,1.533-5.629,2.623-8.676,3.24
		L33.754,78.781c-0.963-2.821-1.439-5.787-1.39-8.772L75.026,93.455L75.026,93.455z M64.326,97.032
		c-5.986,0.787-12.276-0.238-17.894-3.326c-5.618-3.088-9.696-7.761-11.973-13.089L64.326,97.032L64.326,97.032z M38.929,53.253
		c1.672-1.898,3.587-3.534,5.676-4.889l43.992,24.177c-0.188,2.399-0.719,4.796-1.61,7.123L38.929,53.253L38.929,53.253z
		 M45.852,47.6c2.665-1.54,5.576-2.645,8.599-3.282l32.903,18.084c0.932,2.811,1.382,5.763,1.314,8.73L45.852,47.6L45.852,47.6z
		 M56.45,43.968c6.063-0.85,12.454,0.159,18.153,3.291c5.698,3.132,9.812,7.896,12.07,13.319L56.45,43.968L56.45,43.968z"/>
	<path fill-rule="evenodd" clip-rule="evenodd" fill="#FFFFFF" stroke="#000000" stroke-miterlimit="10" d="M15.777,22.063
		c3.619-4.612,8.941-4.899,15.038-3.221c5.596,1.974,10.57-0.244,16.166-3.4c6.694-5.507,11.369-3.325,15.978-0.895
		c4.297,4.087,10.855,2.639,18.046-0.358c6.123-1.821,11.885-2.436,16.354,1.253c-5.603,11.525-1.917,16.515,2.068,21.294
		c5.106,5.628,8.534,11.624,8.271,18.431c-5.932-0.617-10.051,2.218-13.911,5.547c-4.702,3.486-11.392,1.837-18.986-2.147
		c-10.793-3.782-17.126,1.399-24.062,5.368C39.086,49.979,27.431,36.021,15.777,22.063L15.777,22.063z"/>
	<path fill="none" stroke="#000000" stroke-width="0.6999" stroke-miterlimit="2.6131" d="M100.569,82.149
		c-5.382,16.132-21.28,27.877-39.968,27.877c-23.09,0-41.922-17.927-41.922-39.907c0-10.356,4.182-19.811,11.019-26.917"/>
	<path fill="none" stroke="#000000" stroke-width="1.1999" stroke-miterlimit="2.6131" d="M91.691,76.675
		c-5.306,15.624-18.088,23.037-31.184,23.153c-16.631,0-30.375-12.06-30.375-27.892c0-7.459,2.296-15.122,7.22-20.24"/>
	<path fill-rule="evenodd" clip-rule="evenodd" fill="#FFFFFF" stroke="#000000" stroke-miterlimit="10" d="M88.618,63.948
		c4.456-0.36,7.331-2.603,10.155-4.906c2.248-1.924,5.128-2.886,9.397-1.731c4.345,3.655,5.834,8.749,4.116,15.867
		c-0.932,2.812-3.493,4.134-6.087,4.91c1.617-9.428-0.101-13.564-3.334-15.294c3.234,5.675,3.637,11.35,1.212,17.026
		c-0.753,1.697-3.718,2.534-4.699-0.289c1.314-3.535,1.617-6.71-0.303-9.09c1.137,4.557-0.126,7.515-3.031,9.379
		c-2.429,1.161-3.438-0.044-4.244-1.587c3.991-3.367,3.941-6.926-0.152-10.677C89.225,66.93,88.214,65.728,88.618,63.948
		L88.618,63.948z"/>
	<path fill-rule="evenodd" clip-rule="evenodd" fill="none" d="M29.671,51.567l-0.415-0.257l0.602-0.882l-1.168-0.722L28.1,50.57
		c-0.201,0.294-0.243,0.599-0.126,0.914c0.116,0.316,0.392,0.608,0.826,0.877c0.428,0.265,0.813,0.38,1.155,0.345
		c0.342-0.035,0.618-0.207,0.829-0.516l0.571-0.836l-1.081-0.668L29.671,51.567L29.671,51.567z M30.321,49.748l0.415,0.257
		l-0.163,0.239l1.477,0.913l-0.909,1.332c-0.291,0.426-0.675,0.669-1.152,0.728c-0.477,0.06-0.969-0.067-1.474-0.379
		c-0.203-0.126-0.386-0.269-0.55-0.431c-0.282-0.283-0.462-0.573-0.539-0.869c-0.101-0.402-0.013-0.805,0.263-1.21l0.897-1.314
		l1.573,0.973L30.321,49.748L30.321,49.748z M26.729,56.138c0.441,0.214,0.856,0.28,1.244,0.198
		c0.404-0.087,0.706-0.318,0.906-0.692c0.198-0.371,0.217-0.735,0.055-1.092c-0.162-0.357-0.461-0.642-0.899-0.854
		c-0.444-0.216-0.863-0.281-1.257-0.198c-0.394,0.084-0.691,0.314-0.893,0.692c-0.2,0.374-0.22,0.739-0.059,1.094
		C25.987,55.639,26.288,55.924,26.729,56.138L26.729,56.138z M26.468,56.626c-0.496-0.24-0.855-0.566-1.079-0.978
		c-0.287-0.525-0.273-1.083,0.045-1.676c0.315-0.589,0.779-0.928,1.39-1.016c0.49-0.07,0.98,0.014,1.473,0.253
		c0.489,0.237,0.845,0.561,1.068,0.973c0.286,0.528,0.271,1.087-0.044,1.676s-0.779,0.928-1.39,1.017
		C27.444,56.946,26.957,56.863,26.468,56.626L26.468,56.626z M24.799,58.617l0.596-1.477l-0.971-0.799l0.204-0.509l3.301,2.79
		l-0.227,0.563l-4.394-0.08l0.218-0.538L24.799,58.617L24.799,58.617z M25.795,57.463L25.336,58.6l1.915,0.079L25.795,57.463
		L25.795,57.463z M28.333,58.508l1-0.453l-0.182,0.566l-0.93,0.234L28.333,58.508L28.333,58.508z M26.51,63.316l-0.131,0.5
		l-4.009-0.952l0.151-0.574l3.748-1.177l-3.236-0.779l0.131-0.5l4.009,0.952l-0.161,0.617l-3.74,1.134L26.51,63.316L26.51,63.316z
		 M25.612,65.511l0.492,0.049l-0.351,3.182l-0.492-0.049l0.147-1.329l-3.617-0.362l0.058-0.523l3.617,0.362L25.612,65.511
		L25.612,65.511z M24.092,71.442l1.703-0.028l0.01,0.526l-4.132,0.069l-0.01-0.526l1.933-0.032l-0.038-2.06l-1.933,0.032
		l-0.01-0.526l4.131-0.069l0.01,0.526l-1.703,0.028L24.092,71.442L24.092,71.442z M23.232,75.038l-0.203-1.571l-1.252-0.271
		l-0.071-0.541l4.291,0.989l0.077,0.598l-3.919,1.893l-0.073-0.573L23.232,75.038L23.232,75.038z M23.542,73.574l0.156,1.21
		l1.73-0.786L23.542,73.574L23.542,73.574z M26.895,78.366l0.122,0.502l-4.026,0.885l-0.14-0.577l2.778-2.668l-3.255,0.704
		l-0.122-0.502l4.026-0.885l0.15,0.619l-2.792,2.627L26.895,78.366L26.895,78.366z M26.394,82.454l1.62-0.501l0.171,0.5l-3.93,1.216
		l-0.171-0.5l1.839-0.569l-0.669-1.959l-1.839,0.569l-0.171-0.5l3.93-1.215l0.171,0.5l-1.62,0.501L26.394,82.454L26.394,82.454z
		 M30.417,86.636l0.245,0.459l-3.682,1.786l-0.282-0.527l2.018-3.229l-2.98,1.433l-0.245-0.459l3.682-1.786l0.303,0.566
		l-2.041,3.192L30.417,86.636L30.417,86.636z M31.416,88.132l-3.505,2.085l-0.293-0.446l3.504-2.084L31.416,88.132L31.416,88.132z
		 M30.603,93.097l-0.405,0.27l-1.75-2.378l3.385-2.256l1.73,2.352l-0.406,0.27l-1.406-1.912l-1.037,0.691l1.294,1.759l-0.405,0.27
		l-1.294-1.759l-1.131,0.754L30.603,93.097L30.603,93.097z M32.947,88.893l-0.657,0.064l-0.302-0.331l0.994-0.097l0.347,0.38
		l-0.239,0.924l-0.302-0.331L32.947,88.893L32.947,88.893z M35.706,93.255l0.369,0.376l-3.022,2.683l-0.424-0.433l1.005-3.634
		l-2.449,2.159l-0.369-0.377l3.022-2.683l0.455,0.465l-1.038,3.603L35.706,93.255L35.706,93.255z M39.666,98.076l-0.42-0.324
		c0.152-0.278,0.174-0.547,0.066-0.809c-0.079-0.192-0.218-0.365-0.418-0.519c-0.307-0.237-0.642-0.328-1.004-0.273
		c-0.392,0.06-0.754,0.286-1.087,0.677c-0.331,0.389-0.509,0.749-0.535,1.082c-0.029,0.382,0.145,0.718,0.52,1.007
		c0.194,0.15,0.406,0.231,0.637,0.244c0.326,0.017,0.658-0.106,0.994-0.368l0.421,0.324c-0.388,0.34-0.796,0.519-1.224,0.537
		c-0.427,0.018-0.831-0.119-1.21-0.411c-0.405-0.313-0.632-0.694-0.678-1.144c-0.053-0.525,0.154-1.061,0.62-1.608
		c0.403-0.474,0.865-0.754,1.384-0.84c0.52-0.086,1.011,0.05,1.473,0.406c0.387,0.299,0.614,0.645,0.679,1.038
		C39.942,97.44,39.869,97.767,39.666,98.076L39.666,98.076z M42.449,100.683c0.27-0.395,0.382-0.781,0.336-1.157
		c-0.049-0.391-0.258-0.702-0.628-0.93c-0.367-0.227-0.745-0.282-1.136-0.166c-0.39,0.116-0.719,0.37-0.987,0.762
		c-0.272,0.398-0.384,0.788-0.338,1.169c0.046,0.382,0.256,0.688,0.629,0.918c0.37,0.229,0.749,0.285,1.136,0.17
		S42.179,101.078,42.449,100.683L42.449,100.683z M42.932,100.981c-0.303,0.444-0.681,0.75-1.135,0.919
		c-0.578,0.217-1.16,0.145-1.746-0.217c-0.582-0.36-0.888-0.834-0.917-1.422c-0.022-0.471,0.118-0.927,0.418-1.368
		c0.299-0.438,0.675-0.741,1.129-0.909c0.581-0.215,1.163-0.143,1.746,0.217c0.582,0.36,0.888,0.834,0.917,1.422
		C43.368,100.09,43.231,100.543,42.932,100.981L42.932,100.981z M42.498,97.39l-0.603,0.259l-0.4-0.221l0.917-0.394l0.453,0.249
		l0.085,0.945l-0.397-0.219L42.498,97.39L42.498,97.39z M39.68,102.503l-0.439-0.241l0.288-0.474l0.439,0.241L39.68,102.503
		L39.68,102.503z M46.493,100.423l0.49,0.218l-1.746,3.565l-0.563-0.25l-0.498-3.727l-1.421,2.875l-0.49-0.218l1.746-3.565
		l0.605,0.268l0.455,3.711L46.493,100.423L46.493,100.423z M48.443,103.595l0.154-0.425l1.709,0.56l-0.719,1.989l-0.338-0.111
		l0.046-0.53c-0.194,0.133-0.427,0.216-0.699,0.249c-0.272,0.033-0.538,0.006-0.799-0.079c-0.305-0.1-0.547-0.231-0.728-0.395
		c-0.125-0.114-0.23-0.255-0.316-0.422c-0.176-0.321-0.253-0.658-0.23-1.014c0.014-0.219,0.074-0.474,0.179-0.764
		c0.182-0.504,0.488-0.889,0.916-1.154c0.492-0.306,1.036-0.362,1.631-0.167c0.402,0.132,0.72,0.348,0.952,0.648
		c0.263,0.338,0.349,0.713,0.256,1.127l-0.511-0.168c0.033-0.317-0.051-0.583-0.254-0.796c-0.152-0.162-0.361-0.286-0.626-0.373
		c-0.37-0.121-0.72-0.091-1.049,0.09c-0.35,0.195-0.611,0.528-0.782,1.001c-0.161,0.445-0.201,0.824-0.119,1.137
		c0.102,0.393,0.392,0.667,0.871,0.824c0.138,0.045,0.264,0.073,0.378,0.083c0.173,0.014,0.341-0.006,0.503-0.061
		c0.207-0.067,0.376-0.176,0.508-0.326c0.112-0.129,0.207-0.304,0.287-0.526L48.443,103.595L48.443,103.595z M55.798,104.101
		l-0.51-0.086c0.051-0.277-0.022-0.503-0.22-0.677c-0.161-0.142-0.375-0.236-0.643-0.281c-0.249-0.042-0.455-0.037-0.616,0.014
		c-0.244,0.074-0.39,0.244-0.439,0.51c-0.027,0.148,0.001,0.271,0.083,0.37c0.06,0.073,0.161,0.139,0.303,0.196l1.12,0.455
		c0.271,0.112,0.468,0.259,0.591,0.438c0.144,0.21,0.189,0.46,0.135,0.751c-0.077,0.417-0.313,0.699-0.706,0.844
		c-0.309,0.115-0.676,0.137-1.099,0.066c-0.336-0.056-0.606-0.146-0.809-0.269c-0.123-0.073-0.242-0.178-0.356-0.316
		c-0.13-0.163-0.209-0.329-0.238-0.499c-0.029-0.17-0.025-0.354,0.012-0.552l0.51,0.086c-0.06,0.32,0.017,0.58,0.23,0.778
		c0.169,0.158,0.411,0.264,0.724,0.316c0.363,0.061,0.651,0.041,0.865-0.061c0.179-0.086,0.287-0.225,0.323-0.42
		c0.037-0.198,0.006-0.351-0.093-0.459c-0.099-0.107-0.313-0.23-0.641-0.366l-0.806-0.322c-0.213-0.092-0.375-0.196-0.485-0.315
		c-0.192-0.203-0.261-0.452-0.206-0.747c0.062-0.334,0.22-0.592,0.476-0.771c0.295-0.206,0.675-0.271,1.14-0.193
		c0.623,0.105,1.037,0.332,1.241,0.681C55.818,103.51,55.857,103.785,55.798,104.101L55.798,104.101z M58.646,106.011l-1.656-0.138
		l-0.539,1.109l-0.57-0.047l1.908-3.79l0.631,0.052l1.13,4.043l-0.604-0.051L58.646,106.011L58.646,106.011z M57.206,105.418
		l1.276,0.106l-0.448-1.774L57.206,105.418L57.206,105.418z M57.976,102.928l-0.328-0.011c0.005-0.139,0.024-0.249,0.058-0.33
		c0.034-0.081,0.107-0.156,0.218-0.226c0.112-0.069,0.17-0.15,0.173-0.241c0.003-0.088-0.019-0.151-0.068-0.191
		c-0.048-0.04-0.105-0.061-0.17-0.063c-0.103-0.003-0.176,0.022-0.219,0.075c-0.043,0.054-0.065,0.12-0.068,0.201l-0.368-0.007
		c0.007-0.197,0.08-0.344,0.218-0.442c0.118-0.084,0.26-0.123,0.425-0.117c0.146,0.005,0.273,0.036,0.382,0.095
		c0.181,0.097,0.267,0.248,0.26,0.453c-0.003,0.095-0.03,0.174-0.081,0.238c-0.05,0.064-0.133,0.133-0.249,0.206
		C58.044,102.639,57.982,102.76,57.976,102.928L57.976,102.928z M62.984,103.217l0.541-0.009l0.072,3.933l-0.622,0.01l-2.164-3.142
		l0.047,3.177l-0.541,0.009l-0.072-3.933l0.668-0.011l2.118,3.146L62.984,103.217L62.984,103.217z M68.624,104.03l-0.325-1.592
		l0.542-0.1l0.789,3.861l-0.542,0.1l-0.369-1.807l-2.124,0.393l0.369,1.807l-0.542,0.1l-0.789-3.861l0.542-0.101l0.325,1.592
		L68.624,104.03L68.624,104.03z M73.108,103.138c-0.153-0.448-0.397-0.774-0.733-0.977c-0.35-0.21-0.735-0.251-1.155-0.121
		c-0.416,0.129-0.699,0.374-0.85,0.735c-0.151,0.362-0.151,0.765,0.001,1.209c0.154,0.452,0.401,0.78,0.742,0.986
		c0.341,0.206,0.723,0.243,1.146,0.112c0.42-0.13,0.704-0.374,0.854-0.734C73.263,103.99,73.261,103.586,73.108,103.138
		L73.108,103.138z M73.656,102.968c0.172,0.503,0.184,0.976,0.036,1.417c-0.187,0.565-0.612,0.95-1.276,1.155
		c-0.66,0.204-1.24,0.132-1.738-0.217c-0.398-0.28-0.683-0.67-0.853-1.17c-0.169-0.497-0.18-0.966-0.032-1.407
		c0.19-0.566,0.615-0.951,1.276-1.155c0.66-0.204,1.24-0.132,1.738,0.217C73.203,102.085,73.486,102.472,73.656,102.968
		L73.656,102.968z M70.452,101.061l-0.161,0.609l-0.43,0.157l0.244-0.922l0.494-0.181l0.83,0.53L71,101.411L70.452,101.061
		L70.452,101.061z M71.285,100.591l-0.991-0.471l0.58-0.212l0.766,0.554L71.285,100.591L71.285,100.591z M78.236,100.063
		l-0.482,0.234c-0.204-0.245-0.454-0.374-0.749-0.387c-0.217-0.01-0.439,0.041-0.668,0.152c-0.352,0.171-0.576,0.425-0.671,0.762
		c-0.102,0.365-0.032,0.772,0.208,1.221c0.239,0.446,0.512,0.748,0.821,0.906c0.355,0.18,0.747,0.166,1.178-0.043
		c0.222-0.108,0.387-0.259,0.493-0.454c0.149-0.277,0.166-0.615,0.051-1.015l0.482-0.234c0.168,0.476,0.174,0.903,0.018,1.283
		c-0.156,0.379-0.452,0.674-0.886,0.885c-0.465,0.226-0.923,0.267-1.373,0.125c-0.525-0.167-0.955-0.565-1.291-1.193
		c-0.291-0.544-0.372-1.059-0.243-1.546c0.129-0.487,0.459-0.859,0.988-1.116c0.444-0.216,0.869-0.272,1.273-0.168
		C77.738,99.564,78.022,99.761,78.236,100.063L78.236,100.063z M81.187,98.78l-0.953-1.344l0.458-0.294l2.311,3.261l-0.458,0.294
		l-1.081-1.526l-1.794,1.152l1.081,1.526l-0.458,0.294l-2.311-3.261l0.458-0.294l0.953,1.344L81.187,98.78L81.187,98.78z
		 M81.771,96.347l2.544,3.1L83.88,99.77l-2.544-3.1L81.771,96.347L81.771,96.347z M81.478,95.118l-0.086,1.052l-0.299,0.223
		l-0.104-0.91L81.478,95.118L81.478,95.118z M89.315,95.211l-0.383,0.364l-2.458-2.34l1.635,3.123l-0.391,0.374l-3.27-1.552
		l2.45,2.332l-0.382,0.364l-2.922-2.782l0.561-0.535l3.304,1.55l-1.628-3.146l0.561-0.535L89.315,95.211L89.315,95.211z
		 M87.182,91.449l3.165,2.529l-0.355,0.403l-3.165-2.528L87.182,91.449L87.182,91.449z M89.319,88.888l0.326-0.411l3.3,2.367
		l-0.374,0.473l-3.933-0.311l2.659,1.921l-0.326,0.411l-3.3-2.367l0.402-0.508l3.908,0.348L89.319,88.888L89.319,88.888z
		 M92.681,86.627l-1.49-0.786l0.268-0.46l3.614,1.907l-0.268,0.46l-1.691-0.892l-1.049,1.802l1.691,0.892l-0.268,0.46l-3.614-1.907
		l0.268-0.46l1.49,0.786L92.681,86.627L92.681,86.627z"/>
	
		<line fill="#FFFFFF" stroke="#000000" stroke-width="2.0001" stroke-miterlimit="2.6131" x1="69.339" y1="90.28" x2="10.252" y2="18.623"/>
	<polygon fill-rule="evenodd" clip-rule="evenodd" fill="#FFFFFF" stroke="#000000" stroke-miterlimit="10" points="5.539,17.249 
		5,12.001 10.14,14.132 11.425,19.223 10.845,19.775 5.539,17.249 	"/>
	<polygon fill-rule="evenodd" clip-rule="evenodd" fill="#FFFFFF" stroke="#000000" stroke-miterlimit="10" points="42.418,35.343 
		57.532,33.259 58.063,24.256 65.289,32.45 79.209,30.629 71.24,38.317 81.547,46.814 64.864,44.791 56.044,51.973 56.15,40.441 
		42.418,35.343 	"/>
	
		<path fill-rule="evenodd" clip-rule="evenodd" fill="#FFFFFF" stroke="#000000" stroke-width="0.7999" stroke-linecap="round" stroke-miterlimit="2.6131" d="
		M71.464,79.834c6.661-0.514,13.322-1.027,19.983-1.54c4.141-5.25,1.902-8.946-3.236-11.937c-6.364,2.105-12.729,4.21-19.093,6.315
		c-6.295-3.954-10.812-4.209-13.187,0c-1.737,2.015-2.478,3.694-3.236,4.775c0.926,1.666,3.117,0.606,4.935-1.694
		c1.079-0.667,2.157-1.335,3.236-2.002c-0.189,0.36-0.378,0.719-0.566,1.078c1.627,0.227,2.274,0.92,1.941,2.08
		c2.117,0.015,2.765,1.196,1.942,3.542c2.244,1.178,1.045,2.971-0.647,4.852C65.547,85.173,68.298,83.06,71.464,79.834
		L71.464,79.834z"/>
	
		<path fill-rule="evenodd" clip-rule="evenodd" fill="#FFFFFF" stroke="#000000" stroke-width="0.7999" stroke-linecap="round" stroke-miterlimit="2.6131" d="
		M56.543,77.757c1.871-1.955,3.078-2.895,4.292-2.212c0.908,0.511,0.616,1.344-2.284,3.973c-2.083,1.889-3.224,2.966-4.095,2.061
		C53.365,80.448,54.726,79.656,56.543,77.757L56.543,77.757z"/>
	
		<path fill-rule="evenodd" clip-rule="evenodd" fill="#FFFFFF" stroke="#000000" stroke-width="0.7999" stroke-linecap="round" stroke-miterlimit="2.6131" d="
		M59.22,80.006c1.871-1.955,3.033-2.937,4.134-2.099c0.672,0.511,0.668,1.606-2.047,4.236c-2.017,1.953-3.303,2.591-4.174,1.687
		C56.043,82.697,57.403,81.905,59.22,80.006L59.22,80.006z"/>
	
		<path fill-rule="evenodd" clip-rule="evenodd" fill="#FFFFFF" stroke="#000000" stroke-width="0.7999" stroke-linecap="round" stroke-miterlimit="2.6131" d="
		M61.854,82.618c1.432-1.278,2.136-1.366,2.866-0.945c0.018,0.562,0.605,0.548-1.063,2.521c-1.457,1.723-2.667,2.092-3.371,1.362
		C59.407,84.642,60.265,84.037,61.854,82.618L61.854,82.618z"/>
	
		<path fill-rule="evenodd" clip-rule="evenodd" fill="#FFFFFF" stroke="#000000" stroke-width="0.7999" stroke-linecap="round" stroke-miterlimit="2.6131" d="
		M55.188,72.996c-0.894,0.719-3.437,3.169-3.1,5.929c1.052,1.106,2.03,0.992,2.936-0.339c-1.102-0.03-2.394-0.103-2.414-0.967
		C52.576,76.223,54.2,74.706,55.188,72.996L55.188,72.996z"/>
</g>
</svg>
